<mxfile host="65bd71144e">
    <diagram name="Page-1" id="03018318-947c-dd8e-b7a3-06fadd420f32">
        <mxGraphModel dx="1563" dy="1022" grid="1" gridSize="10" guides="1" tooltips="1" connect="1" arrows="1" fold="1" page="1" pageScale="1" pageWidth="1654" pageHeight="1169" background="#ffffff" math="0" shadow="0">
            <root>
                <mxCell id="0"/>
                <mxCell id="1" parent="0"/>
                <mxCell id="677b7b8949515195-1" value="" style="whiteSpace=wrap;html=1;rounded=0;shadow=0;labelBackgroundColor=none;strokeWidth=1;fontFamily=Verdana;fontSize=12;align=center;comic=1;fillColor=#FFFFFF;" parent="1" vertex="1">
                    <mxGeometry x="1350" y="90" width="1300" height="1000" as="geometry"/>
                </mxCell>
                <mxCell id="677b7b8949515195-2" value="" style="whiteSpace=wrap;html=1;rounded=0;shadow=0;labelBackgroundColor=none;strokeWidth=1;fontFamily=Verdana;fontSize=28;align=center;comic=1;fillColor=#FFFFFF;fontColor=#000000;strokeColor=#000000;" parent="1" vertex="1">
                    <mxGeometry x="30" y="30" width="200" height="100" as="geometry"/>
                </mxCell>
                <mxCell id="677b7b8949515195-8" value="" style="whiteSpace=wrap;html=1;rounded=0;shadow=0;labelBackgroundColor=none;strokeWidth=1;fontFamily=Verdana;fontSize=12;align=center;comic=1;fillColor=#FFFFFF;fontColor=#000000;strokeColor=#000000;" parent="1" vertex="1">
                    <mxGeometry x="30" y="150" width="200" height="850" as="geometry"/>
                </mxCell>
                <mxCell id="677b7b8949515195-9" value="" style="line;strokeWidth=1;html=1;rounded=0;shadow=0;labelBackgroundColor=none;fontFamily=Verdana;fontSize=14;align=center;comic=1;strokeColor=#000000;" parent="1" vertex="1">
                    <mxGeometry x="20" y="140" width="1290" height="10" as="geometry"/>
                </mxCell>
                <mxCell id="677b7b8949515195-27" value="Übersicht" style="text;html=1;points=[];align=left;verticalAlign=top;spacingTop=-4;fontSize=14;fontFamily=Verdana;fontColor=#000000;" parent="1" vertex="1">
                    <mxGeometry x="40" y="170" width="170" height="20" as="geometry"/>
                </mxCell>
                <mxCell id="677b7b8949515195-28" value="Pakete" style="text;html=1;points=[];align=left;verticalAlign=top;spacingTop=-4;fontSize=14;fontFamily=Verdana;fontColor=#000000;" parent="1" vertex="1">
                    <mxGeometry x="40" y="206" width="170" height="20" as="geometry"/>
                </mxCell>
                <mxCell id="677b7b8949515195-29" value="Menü 3" style="text;html=1;points=[];align=left;verticalAlign=top;spacingTop=-4;fontSize=14;fontFamily=Verdana;fontColor=#000000;" parent="1" vertex="1">
                    <mxGeometry x="40" y="241" width="170" height="20" as="geometry"/>
                </mxCell>
                <mxCell id="677b7b8949515195-30" value="Menü 4" style="text;html=1;points=[];align=left;verticalAlign=top;spacingTop=-4;fontSize=14;fontFamily=Verdana;fontColor=#000000;" parent="1" vertex="1">
                    <mxGeometry x="40" y="277" width="170" height="20" as="geometry"/>
                </mxCell>
                <mxCell id="677b7b8949515195-39" value="Menü 5" style="text;html=1;points=[];align=left;verticalAlign=top;spacingTop=-4;fontSize=14;fontFamily=Verdana;fontColor=#000000;" parent="1" vertex="1">
                    <mxGeometry x="40" y="313" width="170" height="20" as="geometry"/>
                </mxCell>
                <mxCell id="zNGoOxdxhcUfiAMrygO6-3" value="Changebasierter Paramtransport" style="whiteSpace=wrap;html=1;rounded=0;shadow=0;labelBackgroundColor=none;strokeWidth=1;fontFamily=Verdana;fontSize=28;align=center;comic=1;fillColor=#FFFFFF;fontColor=#000000;strokeColor=#000000;" parent="1" vertex="1">
                    <mxGeometry x="240" y="30" width="1070" height="50" as="geometry"/>
                </mxCell>
                <mxCell id="zNGoOxdxhcUfiAMrygO6-14" value="Pakete / Changesets" style="text;html=1;fontSize=20;fontStyle=0;verticalAlign=middle;align=left;fontFamily=Verdana;fontColor=#000000;" parent="1" vertex="1">
                    <mxGeometry x="240" y="90" width="600" height="40" as="geometry"/>
                </mxCell>
                <mxCell id="58scJgbtM5tuenPCcqmJ-1" value="" style="shape=image;verticalLabelPosition=bottom;verticalAlign=top;imageAspect=0;image=data:image/png,iVBORw0KGgoAAAANSUhEUgAAASwAAADjCAYAAAA/tCmgAAAyyElEQVR4Xu2dB5glRbn+vzUgZi4oKgZQQVR2FxRFDCheE/4xILqGa0BRES+uMLPTM3MCMl7Rq4B6DSCoMAtiIKggIiaCgIJ6VUSuKIpLMMCiSF4JC//v7eqe6fmqu7qrT3efnrPf73neZ2dPd3WsertyESlt5t6sV7J+znqS2NYQM/ei7cY2pWWrXk7Lx3u0fNXnaPnYcRuElo1/nLUfbT+2E2298n78MJbIp6MoCtF9Wbuyvsdaz7qHmjasFSvuTduteiYn2K+wbmHds0Fr+fgVtHT8YFo++RhS41KUEBjVs1jfYd1FxqhiNWdYT5vcgnNUqzmh3mElXNU1tHRsX3r22P3lY1OUDQUY1TNZX2PdTguNqknDWsJGtSMnyktSEqpqXutZs7TDAZvIB6goo8x9WMtYX2TdRrZJNWtY241vzwnxLykJVJWuL9GOUw+Vj1FRRpFtWJ9n3UC2OaWpXsNaPrE5LRv7dUqiVLm0fPxQ2nEf5JAVZaT5FNmm5FKNhjVzL1q66nArMaqKaB1tv+pl8okqyqjxWbJNyaX6DGvpAU/hhHdbSmJUFdOPOYf6QPlYFWWUaIthLaGl40ekJEJVca1nw/p3+WAVZZRoh2FtNbMxJ7hrUxKhykcwfRStFWVEaYdhmc6hdgJU+eoiLRYqo0w7DGv52F4piU/lr9to2fS/ycerKKNCOwxr2Vg/JfGpymj5xOPl41WUUaEdhrV0/CAr4anKafkBT5ePV1FGBTWsUZMaljLCqGGNmtSwlBFGDWvUpIaljDBqWKMmNSxlhFHDGjWpYSkjjBrWqEkNSxlh1LBGTWpYiwrMc41FEzA3ECbsxxSyW7O2TdHmrI2jfRFmMYBxYrheXDc6CCbv59Fk7hkT8hVFDWvUpIbVamA0D2AtZb2F9WnW6axLWTeSneCkMBXw71jfZv036+WsTckv0dcNDGor1ntYX2ZdTNlTGP+TdSbrwyxEXBibCzWsUZMaVuuAST2ctSfrONZVrLvJTlxldQvrNNYbWRiXNazVSR7Eeh3rB5RtUHm6iHUAmdxk2n2oYY2a1LBaA3ILO7O+wLqW7MRUh9awxskYV1PgPmHGPyX7esrqz6z3kTHBJGpYoyY1rKGDBIzpX1HUK5vTGFTIqWBytLrnGnoc60SaXwewSiEXej5rR5rPbalhjZrUsIYGzOFprG+w/kV24mla61jTZCq262BX1uVkn7dqrWXtTaZuTA1r1KSGNTSQs/oW2Ylm2Pok5Vdm+4Kl4IuuXFOFsJxXl8zSXnKbS2pYbZca1lB5LetOshPOMIWi1SFUXUti02YVC8Xrv6f87pIaVtulhjVUHkKmmV4mnGELiX0vGpznsf5B9vHbKjWstksNa+igwr0NdVhSaHl7ApXnsaw/kH3cNksNq+1Swxo66BiKFkKZeIYtFA2xanIZUOF9ElXbf6wJqWG1XWpYrQC5LLTSyQQkhd7t6An+fTJm8gFWwHpDQu9k9VknkOmuMEhXievJ9LL3BZ1SBzkvjO5vrJ+xziDTUx+6kEzOry4jVMNqu9SwWkFWLgv9lVCsmiVjAk9hPYyKjQ1EX6TNWC8gE/5mso+fJxjDR8gPnPMSso9VRCgaoxf+CjLF0YfSwr5hDyYzjGd31tFkTE0eYxCpYbVdalitYVfWTWQSzq1k+mehR/ijaPAOnSii7UZmXKFMpHlCGJ9uDmOsu8g+Tp5+QWasIwZ0FwGGvBXrv8j0vZLHKyM1rLZLDas1bMQ6lswA4GdRPR04tyd/00LO7DkIXADkgHxzV8jFoT8aesGXAWa+HZljDNqDXg2r7VLDahVI8HUYVRLktOKcXBHBUN4bhswHdWh3kH0Ml84lM3h5UDCOcBUVm8UiS2pYbZca1gYH6r++QnZidemIMGQ+qH+SYV1CHdSyMGQ14N5ewbqG7HMVkRpW26WGtUFStFUyFlol89iG/GaZQPGtF4asFtRtYSC3z7XEUsNqu9SwNkjQkofuATLBZukyE8wJJhj0qWxfQ2berzqAaaEl0afoC6lhtV1qWBssF5CdYLOErhV5HE92OJcONcFqA6aFc8jzuqSG1XapYW2woCe6TLBZuppMriyLB5LJhclwWULO5xlhyHpBp1p5bpfUsNouNawNllmyE2yWUHx0teSh4txnZgR0rUA3jrpRwxo1qWFtsMySnWCzlGdYmELGp/7qGBOsdtSwRk1qWK0HHSNR5EKRDOP60Gz/LtYE62DWZyJ9ijVFpi/SW8m0BGJ5rE3JDP2RizTMkp1gs5RnWL7GsJ8JVju+16WG1XapYbUSDKV5DJmOmJ8jMwgYS1zJBFZEGLbyYzJ9qTBGD+v74fizKftmKc+wjiQ7TJYwXvDFJljtqGGNmtSwWgVWr9mTTIW4T52Qj65jfY38Vq3JMyzMpCDDZAkV7sj5NYEa1qhJDasVYFjJ21i/JL+6oKaUZ1i/IjtMljADqavFsUrUsEZNalhDBfVTz2R9j9ppVLFchoXxj1iJWobJEnqgN4Ua1qhJDWtooB5pL6puapQ65TIs5JZ8pkL+ownWCGpYoyY1rKGAFWmwxDqWo5KJpo2q0rB+boI1ghrWqEkNq3EwowCa9ReLWUFqWIOghlWd1LAaB036aCmTiaXNUsMaBDWs6qSG1SiYjx0LQ8iE0nZVaVgXm2CNoIY1alLDagz0NEdPdJlIfIWi5G9ZP2KdLIT+UJjBE6YIkxlk5ZqkqjQsTK7XFGpYoyY1rMZAp1AkfJlIighFSCxKsTeZTpcPJzPcRoLKfAzj2ZRMT/mnsvZgfZR1NpUviroMC+fymakBraKDLqpRFDWsUZMaVmO8g+wEkqc7WV9l7UCDz24Ag0OCxKo26KDqs2CDy7BgPj7FXKx1+IgwZP2oYY2a1LAaAYkaC4LKBOISVqvB4g9Fl73yAev9nUr2ObPkMizwE7LDZAm5POT8mkANa9SkhtUIGHpzC9kJJEuoe3oXFVswtSyzZJ83S3mG9XWyw2QJg59fYoLVjhrWqEkNqxF2IjtxuHQi1b/c1yzZ581SnmF9muwwWcKyYfuYYLWjhjVqUsNqBFSWy8SRpVup+MKlgzBL9rmzlGdY+5MdxqX/McFqRw1r1KSG1QhYTl0mjixhyfZNTLBamSX73FnKM6xXkd/g7fNNsNpRwxo1qWE1gk+RCZXhTTBL9rmzlGdYaMVE658MlyXMybVFGLJe1LBGTWpYjXAc2YkjS1+IwtTNLNnnzlKeYaGP2eVkh8sSlrPfMwxZL2pYoyY1rEY4luzEkaVvRmHqZpbsc2cpz7DAd8gO5xJMvG7UsEZNaliN8DGyE0eWMP96HX2vkqC7BHrOy3NnqYhhdckO5xJ6vD8+DFkPmG/scLLP65IaVtulhtUIPbITR5b+wnqiCVYL6MSKZeUxJlGeO0tFDOsFZFo4ZdgsoXsDGiPkaj5VAENG1wmfe4TUsNouNaxGeDPZicOlt4ehqgdmhZV4fFfgKWJY6D3vMwga+hvrKQhcITCrd5NfR91YalhtlxpWIzyN7MThEpb1wgDnKkER6U3k15oXq4hhAayPKMPmCXV2GAlQBRux9qVyZgWpYbVdaliNgIHHPrkaFJcwwwJMpgrQincQ1TNbQ5Jdyd8sMMD7MBq83g7T3HycBptSRw2r7VLDagQUxXxb0VD/gvmz0qaRKQoMbxfWD8ivY6dUUcPCcKILyA6fJ5jMJ6jc8l8oAr6QTGdUeVxfqWG1XcsnsPq50gCoV5EJJE/IfZxApkjpM4cUcivPJtOdwidnl6WihgX2InPd8hh5gqFi8sHdyMzplcfGrJ1Zx5B/ri5LNRnWqpVWwlOV0V305P3KfNSUEqBOCouIykRSRFgFGqtBo3VvOeuRZBJsDOqAHkfGpMbJzEZ6I9nHKSsfw8KwIsy3JY9RVGhpRG6pQybnhC/qEyJtF/2GnOfZVJ1RxarHsJaPvygl8an8dSVtvfIh8vEq9YAckk9/rCzB9DDDJ8Ycos/WT8hMoLeG/LoV+MjHsMDraLC6pFjoEQ+zvioS+m6Vyb0VVT2GhVzBsvHbUxKgykdLx0+mHfepql5XKQByQVj5WCaUtsvXsBCpTiH7OG1XPYaFvmZLx79rJUCVr94uH6xSL+gkiWZ3n+mJ2yBfwwIowl1N9rHarLoMi4uFY69MSYCq4rqSlu7f1NTaSgK0+n2N7MTStNal/JalMoYFdif/3ubDVH2GtfXK+3Eu67yUhKgqpFVYi6COURFKAfClOI/sBNOEkLv7EpkOm3JblsoaFiIYVrkepEtFWf0v63spv7tUn2GB5eM7c+K7yU6MKrfGzqZl0+hLqAyRrVhnkp1o6hQqwg9mPZiqn60hCzQ2vI+aMy0YMurPtmR9NmW7S/UaFgx82dg7OBGutxOlKkOX03armlq0RMkBK0GjH1ETdVpXsl5DZu1CMJuyT5YGMSwA01pB5bt1FBW6OczQfD+uthkW0a4z9wmLN8vG16UkTtVCXU7bj6MPohYFWwTGv6F/FZrtZQKqQlilBqa4JS188bNiP5cGNSyAcz+ZTP8pefxBhaFM6PuFufCTHWzbZ1hgxYp7s2ntQahIthOpyugM2uGAreSjU9oBEjM6ln6Yquv2gP5KGA6EzqRpy4XNkh0mS1UYVgyG77yN/Gd2yBJaIrPWb2ynYcUsn9iclq46hBPnjSkJdkPVbwndF7aaSXaMVloKjAs9xd9BZvwfWvKQe5AJK0soWv6JdSiZXuGurPQ7yZhWEWGcX9U9jGFcKKJ+i0yH16L3if1wn2i02IvcYy2Rc5X34hJGEDTNkrBCeen43pxQj2ddzLqeMAxl9HUn66+0fPx81qGc63w+bTeDEoeySEHLCBYd7ZMZF4ixdpcKncU6mkwuA8N20nJTbQeNAC8nM9Hhl8kMLUre4yWs77I+RWZusUeZYIqiKIqiKIqiKIqiKIqiFARdKdJaKRVFUVoDWmEfyzqQzDxkiqIorQNG9WgyrZpryHS3OGTBHoqiKEMGRoUuFe9n/ZYW9g9Tw1IUpTVsynoP6/8ovZOrGpaiKEMHIw/2JjNdjWvGCTUsRVGGBsayYYYJzJvvMio1LEVRhg5W6/FZSEMNS1GUobED2abkkhqWoihDQw1LUZRFgxqWoiiLBjUsRVEWDWpYiqIsGtSwFEVZNKhhKYqyaFDDUhRl0aCGpSjKokENS1GURYMalqIoiwY1LEVRFg1qWIqiLBrUsBSlQu5DZmXoLVhbsrZmbRv9/TjWw8gs4+5arl7Jpk7Dwjt5IOsRZN7XNpHwN+aKx6SBi3EF71EF7wtp6ZFkpzUsQoK0hvnT6gZx4qE0fx3QU1hPiP6GF2B7K+IODApG9ArWf7NOY/2SdSVrLesW1h3R39eQmcr3HNYXWfuxnk4mIVRhYPELfFBBNbEEFs4hz5ulIkZetWFhKTC8v9exjmKdy/oDmfd1WyT8fRXrF6xvsDqs57I2o/zrLcp9yX4eLmH/OkHikud06X4mWCq+8RIfjaznivcFE8AkjkeQSUt/JDut/ZX1G9YPWf9D5v0+nqoxDVwDzOlFrA+wTmH9lHU5mXNfRybu3RT9H17wczJxBwuk7ELVxp1CIBf1CtYJrKspfT7xIvoXmWl+P0LGvFwvPg/kDE4mMxtnEX3aBKsN3AuMWZ43S19iPSQMmU1VhnVf1jNZs2TMSIbLExLGr1kfZj2ZBo98byD7ebi0hwlWGzuTfU6X9jfBUoEBrSY7TJbw0cdHPAlM4hlkPipIb/J9FNHfWMeznkPlDB9hns36HOv3rPVkn6OI4rhzMOupVI2JZoKsHRY9+BkVm6LXRzewvsl6IZV7oMgp/Ins42bpTBOsNvBVxXOS580SvohYVMJFFYa1PRlzvJns/csIOefDyDz/soyRfVyX9jXBauPlZJ/TJeRissBH6Fdkh8kSjOXhYUgDPsSfIJM+5L5lhPd+HOtJVAyYJeId4syNZB9vECHufIi1OVUMXBBZwLNZd5J94iqFrC0eKMrjPl9uNSxbScN6MGuSTCSR+1UhfHVfTSaC+6KGNa+kYSFX5RPWRyiq4X25QBxeSaaIKcNXJZTOfkIm9+aT3jNB9hT1U/8k+2R16s+sd1LxLKMalq3YsPA1/TaVz8YXFT42B7E2Ij/UsOYVG9auZNKA3F6lUM/0FkoH1zBLfmsIDKK/kCnql/ngzbElmTJ11cW/osLD+gLl1+0ANSxbMKyXsC5L2VaXEFc+SX6mpYY1LxjWq6h+s4qFYt4baSEoop1K5eumy+rvrN2oZE4LFWJIcE1fdJrOItMy4UINyxZabOsqAroE00K9VtGvpRrWvJDrQXFN/l6n1rKeRgbkrL5Fw0v3a8h0i/ACTaCI7PJgw9R5ZJZkz0INq11CCzAaaIqghjV8nU+mgh8t/8Myq1jfIY9uR+hwhsQsDzJs4SG6TEsNq31Cn5wdKR81rOELueILqf56ziLCtbydCoC+Q5+n4TtslnBdPyLTvUKihtVOnUPmWbhQw1JJ/ZZy6q5R0fUOqr/bwqCCCaDlUqKGNZhQd4IOfei1DGFUAlr95H6+QkfBd5EbNSw/IQeCEQnxu4IQ9/Gs5b51C5X2uL/4OjAiApXncj9fIXOyNznYigZvmbiETBcIDB1A4tqSTOU9elW/jfVxMjdU1hTRH2Q7SkcNy19433gnLyCTa8U1o+4Awt+oHngZmVz3IN1aYH5pueIYNax8IQGfwfoPMuPz0IM+flcQhvWgDgqjBk6hersjXEumJRh9p5B5SF4HhHteSmYYF4xVhi8qFFFTW5sxJvBIsgMUFQ6MHuooUrqaJLENF7CMTBf/W8k+VpYwrg2dV7NQwyouDO94L5lI7npfMfEYNgztKPOxQY7AZTJqWG5dTqZfFtJpEbDfLqyLyT7WIEL91rFkDLNIvAHosNxnrSP7eHmCScMrLPAjWnVkgDwh8k5ThgvmgBt+IplWibx+XnhQ6ETqQg0rX3hfh5M7t+MCCWF/Khf5kLPemNJRw8rWBbRwqI4PjyUzVlces4yQY1tF5dI6PngoYZWJNweRAJEQ44TkjnnCmKRXU3GnzQI3g2xsVn8huCyyn3moYbmFFrs9aPD3BQ4g/w8ccsgoXqahhpWuNWRyM4OwFZUfMB0rToNlxvjGIN6Nk3+DHgaELxjtsjX5l3exPxyzisgfg+EjSODyhr5JxbLCaljZQj3CTlQdiECryX5XeUJdWBpqWLZQqkCP9yp4Nw1WIY/pYfLiZhFQPDyL7OO7hA/jXIkAhvPRlJ3yhGLFIG6bBR5KcswbOq/iJoughpWu31GJnsMFwJffd2oaGGfaPaph2UI6qCqNIS4iHshzFBGqEZA5qYrXkn9fr+eFIcnU6PvW4uPGszpvVgEMapaM+WwjtrlQw7KFVkC05NQFJmTziXxoZNkVAQVqWAuFnCsSdpV8kOzzFFGReOkDximi1ViexyXUnYUgMsuNLuFBvi8MWS+onPXNFahh2eqaYLWBZvSsuscsocVIooa1UJi5YBMErhDkUnxa5WOh20uVoFSHCQ3keVyaq0o4JGWjS+h9WvlkWxWhhmUL01DXzdFkn9el08iu+1TDWqgTqVi9rQ8oTcEI5blcQr1XVkPJILyV7HO5hKmew4pT1BHJjS59mOzI1hbUsGw1YVivJL8K3UvJTLGdRA1rodDhsg5+QPa5XEJH7aIzk/qwPfnl9lANFUYan4iGEzwdAVuKGpatJgxrM9b1ZJ87S/8gE2GTqGEtFNZLqIPPkn0ulxAnEY+rBmn1CrLPl6WbEAi9xuUGl5Abk1/GNqGGZasJwwI/JfvcWUIn4d1MsDnUsBYKw1rqYILsc7lUVxqBj/g+E+9Icgy1tzgI1LBsNWVYnyH73C691wSbwzcujrJhwdAfHYasnreRX6vuSSZY5aC7xjlkn8+lcAkq+aNLmIy+zahh2WrKsGAgd5N9/ix9zASbQw1rXmup/FCcPPYgv2ogfIjq4ntkn8+lsOZd/pglRMZdEKjFqGHZasqwXkp+g6IxFCyJGta85DJfVeJrWFV3aUhyOtnnc8lrYYIbKHtal7aghmWrKcNCnYvP2EK0ViVRw5pXnYb1QvJ7T3UaFqqY5Plc8mrZWUPGENqMGpatpgwLw3QwuFmeP0tYhy5ZH6qGNa86DQvz0vm8pzoNC51B5flcsn5wCf0g8latGTZqWLaaMiz06fOZnfRiWjjFjRrWvNSw0mX94BJGa+PBtxk1LFtNGRa4mezzZwn3muwio4Y1LzWsdFk/uKSG5c+GZlg+cy6pYWVLDStd1g8uqWH5s6EZls8IfDWsbKlhpcv6wSU88Db3cgdqWLbUsMqhhmW0aA3rj1Rf79uqUMOy1aRhIY7I82dJDStbaljpCvtWyR+zhIeIqZTbjBqWrSYNSyvd01HDSsfbsHxmGsVqF09DoBajhmWrKcNCnyofw7qQFs73pIY1LzWsdHnPjYN5j9qMr2H90gSrDRgWGivkebO0mA3rseSXEM42weZ4T2JbEcnB01WjhmXUKsPCQqbyR5c+gEAtxtewUOdSJw8mM0JAnjdLi9mwnkF+Ky/JsYSvSWwrooNNsNpQwzJqlWG9P+VHl04jsT5Yy3gMmRVy5XVn6XoTrDbQk/sass+bpcVsWCsofzHcpD5kgs3ha1ifNsFq441kn9MlNSx/vA0LAyHljy6tIWMKbQUGgWKevO4sYXaB5PCQqsECDfKcLi1mw4IByXO79BYTbI6XkN+g3G+YYLXhO9GdGpY/3oaFB+lz8Zj469UI2FLuR2aVWHndWcL94AXWxa5kn9OlxWxYPnMb3cp6rgk2x86sG8neN0u/pfomk8RxjyH7nC6pYfnjbVgo3v0oZYNLqHuoejWPKjmF7GvO0t2sfUywWvD9Si9Ww0Iu9Tqyz52lK8hU0ifB+pM+xWecDzNE1AHqHjGbhDynS2pY/ngbFkBFutzg0lrWtmHIdvIpsq/ZJXxJ6wBTwH6H7PO5tFgNa0/ymxTuXLI/epuQX8dTVPDXtVDDE8kseiDP6ZIalj+lDAs3gKKR3OgSprets/L9/qx3ULmhQO8m+3pdwjptG4chqwWjAlD0kedzqQ7DOpKqW+48DRSfvk72eV3CUnFp+BTnoU+aYJWDhYLlufKkhuVPKcNCvY9PRTX0d6pvuS+Y1SfIVIifSP6r376A/L72aNlCC1WVIBFjXTl5rjzVYVjo8AsTr+sDg5lGbyD7vFnC9aCCPQ2Yq9zfJXR83iwMWR1lioOQGpY/pQwLiWtVysY8fZf8zSSPpFnF5zmJ/FryHs+6iuzrdelssosog4DIhkgnz5OnOgwLQmX2XlS9aeF4x5Pf4hNYRDXrHpGr9jkW4gk6nFbJ68mve0YsNSx/ShkWQFcF5JrkDi4hYmFRRphMFSASH0vpuSMUObIiuWQjMnUk8hgu4ZxvRuAKwAfAt0NurLoMC0KdDBoBkKOuihXkN8so5Oo/hcTkk1uDLiO7Ar8s6HiM48lzFJEalj+lDeterENSdsgTvkSIgIPWAT2F9X1yf9nOpuJTNM+QHT5PV5Ixg0HBkBGf1WOSqtOwIFRUI5Kgf9igPI/8c7LI6T0HgTPAx+8SssO5hA/n11gPpMFALv4Uso9fVGpY/pQ2LICilE/TdCyYzMlReF/iyvWirUPIORUxLSQm3y8/9HvWjlQOmP7+5BcZpOo2LAgJ/GLWq6h8EfHF5DfkKBZaTfOK3kggMlye8IE4isrXZyFOoerBpzgqpYblz0CGhQR3YLShjP4chS9iXPiavZZMrspn/BkiFEzrUeQGg44xG4AMX0RoNcTMAT6RfxnrBPK7lzQ1YVixEGlPJ1MBXrQVcXPWB8m/+gC6lfUyygcfm5vJDp8nfDjPIzN6o6gRo/rgDWQ6ocrj+UoNy5+BDAs8jHUR2TsWFQwFuTRUyMO83sTaPdKeZIxgNZkBymUTN85xNutB5Ob9VP6LiciPFigUk3Ht6JeTPB9MBcaxF5nc5fVkH6OMmjSsWIi8P2d1ySR21GfGBoZi1pPI5MY+QyZX5dsFJta3KD93BbCPb/eGpGB2Z5FZpXwXMvcTnxf3hfoumGJApnW8bDyUUsPyZ2DDAljBt8wXLk1I+IgQUNl6HSmYEJq/876iiKg+A6GzhGv/J+ta1l8jwZRRie2qcyujYRhWUojI/yCTYHCfuGdUgg+aqHFMn7nUUJk/6DkRT5CrS94PetLj44Lf5f6DSg3Ln0oMC0YwTeW/pHXrh2SKfEXAV7St95GmYRtWHYKpf4D8xv2hJbNskX5YUsPypxLDAigKHEd2gGHr11Ss0j1mE/KbQG/YGkXDOoPKdaVA8RSdTOXx2io1LH8qMyyAYTHfJjvQsITm7i3In+eT/7iwYWnUDAudRMt2oUCODJ2Iy9ZDNi01LH8qNSyAHMppNPxIg4aAshEf/Cf5zbVUla4mvxlQ6zAsdIT0iaBVCfWHaKwYBBT9zyT72HUL1Qh4F/J3l9Sw/KncsABax9Bz+w6yD1C3EHFgmA+mwUC93KHU7D2gkhdzPg17EQq0dKK1Fg0HcltdQs5qULOKQcv1T8k+R13Cxxktmq9P2eaSGpY/tRgWQHMwVilBq5E8SF1CSyUGEKOvTBXAtHC8OlqIpNaQaRVrw6o5MCyAJn7kturMLaOC/XSqPrHBtNDYUncDClqy0YEUJQud091oURpWzHasU6neylDkgs4hM4TDp2WpKHuQ6VlfR8LFtePrHI9ta5NhAXT8RGNKHaaNjxnGKhbthOoLhn9hWqMyIxiKCDnQLs0PM1PDMlrUhgXQCQ8vE1+8KiM+HiISNwYhVzWgOgvUh6FCFz22qzAuGBWKQbj2ZOfIthlWDIbW4P35RNw04dmhX9PR1Mwiu/iAPZvMCImq4h5y8l8nu5+YGpbRojesGCRMtMAdTqaC1ffLh8iOMKiUniUzbGPQQdS+IJH1yLRA3kB+5oXiyVoyvfrfQuk979GcfwSZiuMi+iLl19ehbkiGcylrCmgUkWFcXyWTQIp27MUzQqsrupgcRGbgeh05YRe4dnR7WE1m0Lpvjh/7ryFTN4ucfBo7kf0sXULDThb4cGGsowyTJd8plXzYlsyYTnnOLGEwf12Mk30+lyoDiRXmtR+ZOd8vYP2OzNzdsRBBkAs5h8wX+QAy9SplZhWtGhjljmTmVoIBn03mWnHNV0SKrx9fd0zDDJPCsBWMwVzsYFQAKpmR68RYzd/TwneH/2NSu2PIzMaJBSOa/rhkgZwIxkNOsb5CpoJeXv/lZFqav0lmyBhGc2xGipIAleWITLEQQYqMJWsL+IrjmpPXnzccaFSAGSXfXVvMqSjy+pFbaToXqCiKoiiKoiiKoiiKoiiKoiiKoiiKoiiKoiiKoiiKoiiKoiiKoiiKoiiKoiiKoiiKoiiKoiiKoiiKoiiKoiiKoiiKoiiKoiiKoiiKoiiKoiiKsmgIgv4Tg+ne0RPTveMmJ/tYCbhqluDY0NRU92VyY9NMTvZ2wrUEne6nJycn81Zqrp2VK1feL5jq9cPnP93LWulZURQw0TnwWWxY/2LdM9ntYgnxqlmCY0MTnR5WjB4qE1Pd10fX87dOp4OFOofKxMTEA4Pp/vnmmvrHyu2KMpKMjc1sGnR63+ev9S84UWIp9kKoYQ0XNSxlg2Ri4qDNkQhD45nurpLbs1DDGi5qWMoGSasNCzk/1mSnv6fc2DRtM6yZmZmNJ6d6nwyfz3Q3kNsVZSRpsWGFiTLSfeS2pmmbYQF+Lhvh+eyzzz73ldsUZSRps2G1iTYalqJscKhhFUMNS1GGxNTU1EM5Ab4RQh8eToQ3mMTY/1L8O+RKmGmGtWLFinujpXGi0/su/34N60bWZZOd/lf539eiCCOP4yK+jvFO50lym2Si210e7j/d//e4CDk5edAWk9P9/wqmuz8L77HT+wf+npzqfXxVp/NkeQwXvoaFotrEVO/VuCbc+6pVMw+T+wwC7pGf+4vCe+Z3IbdL+J0/jq/jDVD8G/qToUGD48CP+PfrWNezLmZ9YWqq9zw+x72SxyjKql5vS37WH4waBa6N4sHvgk7/y6z/h3giw2SxcmbmIWE87fRfhxZtuT0NvFuEQf+9vOIy4iTeE47f7XYfEf+Oa5yc7O2Mvm5Bp/tZxK9kuCwmJ/vbchw8hO/9J8F8GvgzH+eHrO5Yr/doGcZFEMw8Mo5DY2Nj98dvfM0PCqb67+XfzmSt5eP+k/+9hDWL+O/zfCV4XvwsXoU0OzHd+0N0/Xwf/XPxLHyvX4LnyMc6jI/1qyi+/Z3jyk9ZH5ro9x8v9w+ZmjpwO95xfUJhaxzr7uTviLQybIw0rANmZjbhv38gjpfUXaxTOLFvJo+VAVoJzbVM9feXGyVsTAeb/fvnhC1onf4r2Jz+Eph7ktcC3cgJ9T/lcbLwMSx06uREcEx0z9AXfM06j6iV8FzcM0es1XK7JLr+O1l34P8cB7YPjDllPZ91HKkOjRNJEZBQOOJN8vXcnHK8WHgeJyK+yPBpwHwCc483s4E8Q25PAyUFhEFXHRie3J4k7NYDQ5nu3YLEjt+mp6efwHHjO4F5XuF1w9RkWMGSKA7elnLPsfCsrypwrDkmJ7svie7ln/gAh8+j0/t5+Jt9fOh2NtgjED/ksfKIPmpIw3hH8rjx9V8HA/X9mCEe8XV/mMPfknJcI85QTHZ6b7WOzTf91OiiYsWB8BDmfi9qWJxwdosSD45xS5ijmupNc8Tp8M2dlIzAnLv5fJwDysGrW0P0MO5BboHPuXtgvgx4wJeycX2CTW8lR8iPIBJHv+PYtyFCyGOlUdSwQrNiA4n2XQ/jQm5L7jcovt0aApO7Cj8A+EpymCtNWDb1TvdI/v/YxHT3wMBE2Dihri/y7COW4H1H4SB8PY+HgYXC3yYnYN7pVPfrRRJVZFgIc2tRw+LzTYRh+CtexLA4zvw1QFzgHCub1db8/98n7iP8iOeZDJ/rY4kwSJQn8vPshTlYztFHufw43v2taI6N38tLozA3rpo+cMfEtV3Lx/0iH38cOZ/IYO+IrwHn5uBL5PGyCIL+Nhzuqig8rhMmfhTMH6WUKBcexwv8+yYqePxwVAbnUuNrC/Bx4PfPx57CtUclstvnj919OyWPjWwf3DR01G736QGyldNI7P2D498hnGgukGChYXVPDcxN/gDh5L5Bp/Nc3udq7Avz4gf/TLlPCqUMK/r6IOdwO15aSs4GCSsIoi8UX895+E3sY1HEsMLsNLoamP1qMyswiGFFhoqP0mxKTmcJupEkzOUyfNnFPhac0LcK4hw3R+7JyZnHyH3wWxQ5IxPovl7uI2nSsMIivLk+nG9dANNBcazT2cVVMojSUGRG/Z+kpYGwiMk5epwH+2FIlZWTSCE2rOijfyKeGzIEaXGQr/+VgSna4/qvSXsHaaCKiNPnhVG4f8Fg04af8TW8JjBFfOy3tmjxELkmXHcYjjMMKOHJfSY6nWfztj9Fx74VmSq5T0gVle4mbO9/024yBnUEQeTQbIwzcnsK5QzLnONO5PCyyvJh0cW8fOx/Az/AZXIfSZ5hhWZligShWbFm6zIrMIBhmUjJkT7r+YBkbikvdwGiYhj2vwlfa7k9BuYXoD7L7HuG66MIGjWs6d7h4TPihFM05w34+X8pusbrkvVgEhhUdA58WP9YJMEnclgwRORCTnHFK6SV8B7C++++TW5PYQly19E57kI6chkpjhlE6R4lFsr52Ef+cml0/Esz66lorpoiNsSTU6+jIsO6Cw4p90mCiMEv66Jo/zNciSWirGGFuayUnMMC+GG/ONp/PUfYN8vtEpdhoYibMKu7EYFdkaoKBjSsG/K+vhjQHkQ5bxR35HYJcgzYF7kruU3C7+dD5jq6V+ddR4OGdWeUi1mbF5cFiKfmOU13PyE3StAQEETmgwQqt0sShgVdz0XJpXKfJFFOF8W5e1DUl9slvP+/xTkbvv8f5xXT8WEO5qt/Lsmr45zo9N8Z7XtbkQ7gc/WP7ClovJHbKzKs7oVyexpxpEZ5Pi8i0QCGxRFwX7ldgvMHyA2YiN2V2yVZhoWvQNKs+NzfzjPLKhjIsApEZBgu73tB+PynuifJ7ZK5dzvV+6HcJkFLYWDizk1oVZPbkzRoWDjHetTjyX1cIEcVmJwPTOi1crskykWErfJTU73nyO2SpGEhVyy3pxHVNyHMaSlVIguIipHYF/VfqJfKhY//Pjwrcw928TcmrLvia4iOfwFfywPkPpKo8Q6tq+npvgrDKljE40jdPSi8kOneHwrUi5Q1rFvyEgEIWy2me78Jw3BYuV2SZlhh0XKqv19gIit0WhNmBQYwrLuLFPEA73syjo8K3bwc8Vylaqf3D1Rcy+1J0MVj1VT35RBH4gfJ7UmaNazu1a4EmEbYRYhNDnG7SFjcQxC1lBXJcSQM666CRTy8t6Oj+z/LlQNaUESd7l1RNO6imxHvfxRr1vWu0SUjmPeWKbk9i7iIjfpEua0aw+r095Db00CLQHghNRoWR77fu+oRYsIcBPp/mOtZLbdLpGFFZrUyiFo3+BjnFX3hVTCAYa0v0q8N4LlE9/bjPGPh/VbMvS/eH5WmqXUQnjRsWKfK7VViKt67U/Fz8jSs24oWVTFnW/QeLoKhyu0xSAN4V9G1nCC3Dwoa16JrvwUNF3J7FlEODqWVv8pt1RhWwZ7uTRgW6wJX5X/MIIYVdubr9N4f379R90LX16xqBjEs3LvcnoaPYUX9bNBCGz2P3lp8vVF5jXqqvKJJFk0aFnJJcntZcL/4sKGSOeh2dwhg6CYXiu42ZQzrJleFdZKihoV0Et87Glnk9kGJ0wzOgS4ZyEgUEaelvYOou5U85sgZFsrveRWHYADDuia6j3XR//8e/ctm0B+T4epiEMOS27LwMSwAc4nqT2TfvitQtwcjQbzJM5EkTRpW1P+nNDAo1M+FPd0x04jpfY4K+eTzQJoJ6388DevGAmkmpKhhRfVFYTVB0eKmD1FOCdd+B9J8YFqHCyjsIxh2E5HHVMMy17NabpckDAuVk6FZISFH2d6wkpB1LXpJy7B10EbDAkggk+Fwr7Bfj2nUWCiOM/1zEGeKFBmbNaxilc4S03LWfVdgDCpuiTVx17Q8rsEzRI4zqvMMc1nDNqywhdAc+3aMDJHbByXqiCzfv5fkMdWwzPWsltslCcOK1D9/vNd7LLZFkRW/353Xv6kq2mpYMbz/AzAPvvnKdk+NvrDzOY1wGEaYYJ39eNpuWDDdKO7FRnU7isZh50u+P3zQUBkfj2lMthK2yLDQifc/5PZBmauvQyfkqd6hAcaXekoeUw3LXM9quV2SNCze/7xkixAfa6OoKITtt9XxtZK03bCSIFGjk+SE6Sl9ejA3hKR7dV4DQBnDmutm0oBhBZ3OC4L5uszfhQOpHXWobTKsqGsPhlDdgwYkuX1QUMQ2196/8oBu91FyeynUsDwNi78WSERyOyoVg3jgKyeUojMLlGUxGVaS8LrNuLvQtKIxb5mUMaz4uhsxLIyRNGFzO3WCNhkWcsGBKcbi+EfJ7VmY/lV8XfxhdjUEoNtKeGzMktLt7iC3l0INy9OwUnq6g7BogEHWZp/1RfumlaVNhoWBvPzcP8XXcViRrh3IgQTzLYqnuaaAEYa1s9wuCeuT4mM3Y1ioKC4Uh8DEdH/XICoaD9uwwm4Wnf4J8bNyvYck6HsVRDkzDv8quT0m2g/dflDkfKPcnkV4z1Pdb3K4b8htalgFI1ueYQEMkOVj/jHab21lX5UU2mRYMJLonm8vOLAdierIMExO58aokyKOjZam18jtEvT/CuLxaM0YlplLbqr3AbktDd5vOjrX0A0L8L3vGx3/pqL9vPAe8D5Y612NTFErJCYiwLUcJ7dnMZdDnu79Rm5TwzLXs1pulxQxLBCYDpRRBWz31JmC/Y9gCGHPYJarDiSmTYYVVd4i13B30TiExonw2ju97+NdyO0x4XMpWHwEgRnIa2ZOaMawwm4t6Mogt0nwQeNz/TI6VysMK5xscb5v2NEoKch9kmB7/O5wL653x2Ax5LAnPZ5xXn0liIY6XRe9P3sMqxpWtYZlVmQOs7PYd91kgYHVIPryonvENUXGs7XJsEBgZtjEPV/qmooFoHWV97s83L/TPYIcLYUopiDhmWN3f+aa3QENIYhb0XU0ZFhz07L8xtU6zM/vPkE4C6sxdoRpg2GF18XxJzrHTa4iHogmFAy7q0SdTTPfHcB4ycB0A8KQsGPyip1R51o8n7tS6wRxQ0GcbZvqnpTnsDFqWNmEMx2E0zGbBIxck9xHkhhAnf5lEbTOsMy0I7j+u3n/47LqsjCOkPf5BvYLwhkS+i+W+wiw3Fs0uwPv3+mNyx0AjAc52sBMkYJOm40YFl//R6OwmJamL7cDFHmjPkmccPvn8L+Xhc+1SLyu2bAAxt4Gc/NoYZbe/kvlPiAcBzk/Z9Wfi7T84QMzV0823bsddbtppgWzj0aPhA1XnN6+nvoBmDFN8t+ODrgO824jp4UX4SqfqmFlA9PH1yfaH9PNHCb3kSx2w0I84v3Oi+4B5/l1WD/S7e6AoTmI7DAb/v3/ou3hdeM9yGNJEA8THwDMW3Uch90NLVThdMad3l7IfUXHPX1uSpMGDCuqWI7WRAiLrsdjqmXcc3jveAZmllvkrK4K000U74Iwp9I/1zXOrgnDYpZEk+zF3TNuQM4X94HpatACHhluNI1OeC9YG8CZu4oJn9F83S7mqzudr+014XsN+k9kQ9uDfzsliMbl4n24Wh9Rn7BnMBeJEnI8SDUsN8hhzNVXoONcp/NcuU+SxW5YAF/cyDjiOITzIY7gqxlPwRL+jq+ux8IciAuoGzTdRowQ8fF/FDfCVjfWBUhg0b6NGBZAuOh64muDceHacO9xusJc6LtTWK9jZi2ZV3qOBjRkWNGkluEYvth85X3E724df4yDmWLTnM+BouHkwqmn8bzw7qC5Z4d34ZqaPQQnR09XDnA264pYrhYfOCPvczS+digCye1phFPQ4us41Ts0q8iQABV2x0GY9ExulHACeJ3Zv9tz1XPEmLqR7kFhmE7/3XK7BL22w2vnyFCkUhzA8ON7mMxZ8GL++sN5peZWtsnC1JX1+tGx95HbJfjAwIAguS0LHDd6pgcWeaYgXInHfI3j+cGTuouP92N8IJEjk2FzWII51xN1Rkldi6JGHKfm31XvQ64WSBAaP7/T8DkW6DaRwZJVU73nR8U9eW23hz39zRzuYY7E9EXDGgPhB+FoV2U06nGiOHEUGjfk9jQ4Lb/FxIv+wTMF5qBKsATn43N9JbAXi1iP3CC6ZaAEIQMWwVSo9w8L5nNqSd2IXF08eiTm/wO4+/FlN0OloQAAAABJRU5ErkJggg==;" parent="1" vertex="1">
                    <mxGeometry x="82.5" y="40" width="85" height="50" as="geometry"/>
                </mxCell>
                <mxCell id="58scJgbtM5tuenPCcqmJ-2" value="CPT" style="text;html=1;align=center;verticalAlign=middle;whiteSpace=wrap;rounded=0;fontFamily=Verdana;fontSize=28;fontColor=#000000;" parent="1" vertex="1">
                    <mxGeometry x="100" y="95" width="60" height="30" as="geometry"/>
                </mxCell>
                <mxCell id="3" value="" style="group" parent="1" vertex="1" connectable="0">
                    <mxGeometry x="1250" y="90" width="60" height="50" as="geometry"/>
                </mxCell>
                <mxCell id="zNGoOxdxhcUfiAMrygO6-7" value="" style="shape=actor;whiteSpace=wrap;html=1;fontSize=28;" parent="3" vertex="1">
                    <mxGeometry x="10" width="40" height="30" as="geometry"/>
                </mxCell>
                <mxCell id="zNGoOxdxhcUfiAMrygO6-8" value="John Doe" style="text;html=1;align=center;verticalAlign=middle;whiteSpace=wrap;rounded=0;fontSize=12;fontColor=#000000;" parent="3" vertex="1">
                    <mxGeometry y="30" width="60" height="20" as="geometry"/>
                </mxCell>
                <mxCell id="4" value="" style="group" parent="1" vertex="1" connectable="0">
                    <mxGeometry x="1180" y="90" width="40" height="40" as="geometry"/>
                </mxCell>
                <mxCell id="zNGoOxdxhcUfiAMrygO6-11" value="" style="shape=image;verticalLabelPosition=bottom;verticalAlign=top;imageAspect=0;image=data:image/png,iVBORw0KGgoAAAANSUhEUgAAAGQAAABkCAYAAABw4pVUAAAACXBIWXMAAAsTAAALEwEAmpwYAAAFQklEQVR4nO2dX4hVVRTGP2psTLBJHPBvZYNPzSCG+paKiWWkPhRFUERQWmb5oEYPvQS+iDihoxb61ARmNQOGVA9lGEHRQ0/phAkWmWYghI3OKDozKxYs4XC4c+895+xz91r77B98MNw/Z+/9rTvn7LPP3msDdukBsBfAaQDXRKflNX4v0iLuAnAQwDgAmkRjAPbLZyMlB+PbOoFI60QMSrkczBCM2+oruU6VpUdORVkDwt/p9l35ENmXIxi39Z7vyofIUIGAnPJd+RC5WiAgw74rHyLDBQLyn+/Kh8hQPGXpYm+BgPT6rnyI9BTo9j7ku/IhmH8IQFvq9f05AsLd5SRTAByO413NsRDAkcQ41Qs1hk5OZAjGNxKAJC/Ke+NSFpcZqcGrAEZThl4AcG+NoPQ1OH2NyX9GOhgzAFxMfXZUyo4IbPhAHXMHANxRw61uuQM/JfcoV+Xv3kmuGXyMwTrlDErAKs0seYbR6NRzYJKgNAt/9/0myhmSOlWSZoNBomMAOnKUw9/5PEM5lQxKR84bvUsAXqpxbajFFPnspRzlDOUMvlk+zWESJfQ3gD0A1gN4AMA00QJ5rTdnIJL6DBVhY0GjqIXahMB5EMCIAqOpSXGXuAsB85ECkymjuM5B0p1zLIo8i+/oFyFA6t2UadcAAqMTwE0FxlJOcd1nIiA2KzCVCiqo8a7vFRhKBfUdAqGjwbRPKxoHcA8C4FEFZpIjrUQAvKXASHKk7QiAowqMJEf6GAHwkwIjyZF+QACcUWAkOdKvCIB/FBhJjsTD/ua5ocBIcqTrMM6dCkwkxyrybN87dyswkByrHcbv0ikwTYfxUV4KTDNhmC4FBpJj8aQKsyxVYCA51sMwzGMKDCTHWg3DPKfAQHKsZ2GYtxUYSI5lesS3mQnO1tQHw3ylwEByrOMwzJ8KDCTHOgfDC3EmFBhIjjVh9dn6CgXmUUl6BAZ5R4FxVJK492iOrxUYRyWJOyummGZs2QFlFC8wnQpDPK3ANCpZG2CIIwoMo5LVD0Pd3ZBPV5RYXWViXfs2BWZRi7QVymmXdBhUEZ3XnoZ2qwKTqMV6E0q5v2AaPjIqbvN9UMhxBeaQJ6m7UdykwBTyrFeghLUAbikwhBQsDH3cdzCWVfS6QZNoWGbaeGGN5MP1bQIpHOd6stXB2BJPU2h0+nq9FYHgea2fKPgVkhEdLXMu8GIAZxU0kozprHjnlFXx4o0iQbkmszidsLBG+tYoZPZgxFWO4CwJJKPQMJGn1307ouB+H5MYEDj7YTnZxyRLbt0o1PXgFxcB2R2Nhqsf2i4XAZkv3bb460fhXhY/M6pcrl1SqpfhmB1Gs4qSZ43JxI/SRnh/V9BIMrR0ofQ1iVMlKdlfChpMimej7Gh11oc2mTI6WJGJcdRAI5Lf96kae2d5mVz9hHTrfpSsORS4RqWtu6Tt7IFa2mSnNd7U610AH0qa1T+MJVS+KdfMk9IGbsvzkjbd+3+By5RN3B9fDuAZ6VLz+XanrHDtlwFNNuFnyUh3LqHLAP5NKLlsbiL13uXUd8/IMU9KGf1S5k6pw0ap03KpI9c1EolEIvZYBWBJQl0JdcrajBmpvn574vXO1HeSx+JjRzIyXGLvKe6vnoPfSgxIEPl3Q8qT8oXvxllkS4kBec134ywyv6TpqnzMeb4bZ5XDJQTkA9+Nssxcx72tKwBm+26UddY6elLJWxat892YUHij4D5W49JJiDhkXc4FQld8LKCpCp0A9jXZ++LPHAIwx3elq8A82azyS7nr5umuLP6bb/r4PZNd2/8B0Eko1IqU1gAAAAAASUVORK5CYII=;fontSize=12;rotation=0;" parent="4" vertex="1">
                    <mxGeometry width="40" height="40" as="geometry"/>
                </mxCell>
                <mxCell id="zNGoOxdxhcUfiAMrygO6-12" value="2" style="ellipse;whiteSpace=wrap;html=1;aspect=fixed;fontSize=12;fillColor=#FF0000;" parent="4" vertex="1">
                    <mxGeometry x="20" width="20" height="20" as="geometry"/>
                </mxCell>
                <mxCell id="7" value="" style="group" parent="1" vertex="1" connectable="0">
                    <mxGeometry x="1110" y="90" width="50" height="40" as="geometry"/>
                </mxCell>
                <mxCell id="5" value="" style="shape=image;verticalLabelPosition=bottom;verticalAlign=top;imageAspect=0;image=data:image/png,iVBORw0KGgoAAAANSUhEUgAAAgAAAAIACAMAAADDpiTIAAAAA3NCSVQICAjb4U/gAAAACXBIWXMAAA7fAAAO3wFVDDfZAAAAGXRFWHRTb2Z0d2FyZQB3d3cuaW5rc2NhcGUub3Jnm+48GgAAAv1QTFRF////AAAAAAAAAAAAAAAAAAAAAAAAAAAAAAAAAAAAAAAAAAAAAAAAAAAAAAAAAAAAAAAAAAAAAAAAAAAAAAAAAAAAAAAAAAAAAAAAAAAAAAAAAAAAAAAAAAAAAAAAAAAAAAAAAAAAAAAAAAAAAAAAAAAAAAAAAAAAAAAAAAAAAAAAAAAAAAAAAAAAAAAAAAAAAAAAAAAAAAAAAAAAAAAAAAAAAAAAAAAAAAAAAAAAAAAAAAAAAAAAAAAAAAAAAAAAAAAAAAAAAAAAAAAAAAAAAAAAAAAAAAAAAAAAAAAAAAAAAAAAAAAAAAAAAAAAAAAAAAAAAAAAAAAAAAAAAAAAAAAAAAAAAAAAAAAAAAAAAAAAAAAAAAAAAAAAAAAAAAAAAAAAAAAAAAAAAAAAAAAAAAAAAAAAAAAAAAAAAAAAAAAAAAAAAAAAAAAAAAAAAAAAAAAAAAAAAAAAAAAAAAAAAAAAAAAAAAAAAAAAAAAAAAAAAAAAAAAAAAAAAAAAAAAAAAAAAAAAAAAAAAAAAAAAAAAAAAAAAAAAAAAAAAAAAAAAAAAAAAAAAAAAAAAAAAAAAAAAAAAAAAAAAAAAAAAAAAAAAAAAAAAAAAAAAAAAAAAAAAAAAAAAAAAAAAAAAAAAAAAAAAAAAAAAAAAAAAAAAAAAAAAAAAAAAAAAAAAAAAAAAAAAAAAAAAAAAAAAAAAAAAAAAAAAAAAAAAAAAAAAAAAAAAAAAAAAAAAAAAAAAAAAAAAAAAAAAAAAAAAAAAAAAAAAAAAAAAAAAAAAAAAAAAAAAAAAAAAAAAAAAAAAAAAAAAAAAAAAAAAAAAAAAAAAAAAAAAAAAAAAAAAAAAAAAAAAAAAAAAAAAAAAAAAAAAAAAAAAAAAAAAAAAAAAAAAAAAAAAAAAAAAAAAAAAAAAAAAAAAAAAAAAAAAAAAAAAAAAAAAAAAAAAAAAAAAAAAAAAAAAAAAAAAAAAAAAAAAAAAAAAAAAAAAAAAAAAAAAAAAAAAAAAAAAAAAAAAAAMtkj8AAAAP50Uk5TAAECAwQFBgcICQoLDA0ODxAREhMUFRYXGBkaGxwdHh8gISIjJCUmJygpKissLS4vMDEyMzQ1Njc4OTo7PD0+P0BBQkNERUZHSElKS0xNTk9QUVJTVFVWV1hZWltcXV5fYGFiY2RlZmdoaWprbG1ub3BxcnN0dXZ3eHl6e3x9fn+AgYKDhIWGh4iJiouMjY6PkJGSk5SVlpeYmZqbnJ2en6ChoqOkpaanqKmqq6ytrq+wsbKztLW2t7i5uru8vb6/wMHCw8TFxsfIycrLzM3Oz9DR0tPU1dbX2Nna29zd3t/g4uPk5ebn6Onq6+zt7u/w8fLz9PX29/j5+vv8/f7U9jk/AAAN30lEQVR42u2ce3BU1R3H775CNuSx2QDyfhve4S0UKPKqYAsKVdtQcWAoPhCkFalSUCqvEQEplEd5SECSjO0UlUEstjCl2JaigoRYKdMZdULbAdsRAeURhG0LFIgkIbt7z2/33nM+n38U2N2TnN9nv7/fvZscywIAAAAAAAAAAAAAAJ3xsAVJ2/qm6eXlJ08hgIkEht6Xlxu89H/HDpe+9ocIO2IUfVb+O1KRo0uasCnG0GjuR5FKlBe0YWfMaPyPnIhUyYXNXdkd/Wn9+0i1fDk/wAbpjW/a6cjNONCRPdL67f9OpAbOTmWX9GXEZ5GaWedjo/TEO+diJBq2BtkrHQlvj0TJnlBiL0uoTSLI29L88n8/3fOn0qOfNOic1zkvp7rHbh/BjUHdGHby8pv7wwcrXOh1mbnnQtUZMIcN04yHz1+q6/mn/Df8fc7ogn9UIcDFu9kynfAsvFzWsj5V/mP3OR9UMuAE94U1IvVXl4v6cfWf97R9+v0bDDiUwb7pQsbuK+//Fjd9VM/VX/2IoIiN0+Xy78rdv7Ndanpg2ti3KhrQg63Tgkb/D/cp0Tw4d8GxawLsYO90oNORK+XcGeXjU/KvfVo4mN1zP6Ou3v3vHf1z2i09fvkpe9k+1zPr6t3/N2N6WnDMrktPzGMDHURoUZ+YL/9evtbQ+8b63Fbzjnzei113EAsjkYMTY7o4r//29Y934ljQ25BNdxLdLhXy1Orof2yvZ9n1S7p72D/3s/VKLd+dkB7No30zz1f4QS8+cdWAtlcrejKKGGizp+I9nTHsng6svF7R939y0x/eDP74TMX6H+FnfbWg7ldu1h+eX10OpDz6z69+sDONvdOD/Bs+sftw0Z2ZlR6UMf7jGz/azWTrNGFp5V/l2LckPzft2gNaPPbbc5Ues9jh3xUTatQEdlV9M+jcqXNnzvgyMjJrVfGPn3b4FzunCw2ORmLmfrZNI24/H2v9X3f898QvosRA2RdDY3zCiNMIoBN7vxwUy8NPDC5jzzTjiRjyv3wg+6Ufky9GW//Td7FbOjL0k+jqf7wfe6Xp1eCuaOpf1omd0hXvsxdqrP+WMPukMZ1/U8NJH1PYI825o6T68l8sbsEG6d8Hxv6tmvq/2Y3dMYPui8oqVf+LNS476YtPA23tXp/84c2u/uE/ZYc++Mu2zywEMIvMju3DwWDk8KG/nmYzAAAAAAAAgPsAUD3N4tz/Y+cQQAcC5XE+cfivVX0JXqqQROL+oYFsCwF0oE7CzUEAPQQgAfQgBwFIAARAAGYAWgAJQAIgAAJETQgBaAEIYHACBFMRwOgEUBcBCJBE/FkIQAAgACNAHIQRgARAAIMTAAEQAAFoAQjAEIgAtAAEoAUgAAmAAEYlQAgBzBZA2RDIbwYlD3+5jd1PP0MCuJ2wnXefqiEAAVw5AyKA8QKEEcDkGZAEoAUgAAIgAC0AARgCEYAWgAC0AAQgARDApARgBnA9Nn4vyFL3eTACJA1bnwUhgOEjgBVIRwCTRwBlUyACuDQBVE2BCOBWAUgAWgACkAAIwAyAALQABKAFIAAJgAAIgADuwRdiCDSasIcEYAa0QQgBDBfAgwAmz4CWLwMBjE4ARVMgArhWgGwEMLoFIAAJgADMAAhAC0AAWgACkAAI4DLsfhaEAC4nbPtOLkOg2SMACWD4CIAApidACAHMFiDLiwBGtwBvFgIYnQBqhgAEQABwZwtAANMTIIwAJAACIAACuBFfNgIYTbYHAZgBGQIRgARgBkQAEgABEAABaAGxkuFDAKMTwBNCAKMFUNIDEMC9LQABTE+AMAKQAAjgSrwhBDCasBcBGAGYARgBSAASAAEQAAFoAQhAAiAAAiAALSAW0gMIYHQCqDgiAAFcnAAqegACuFmAsB4CeKa2lF5i4L3SKzSZHsuuZ5MA12m8Y3GK7Aopi3Y2Fv4mRh8cEEvhvI4RwJ/0+n93VbbwCh2LOwmvEFo5OhkzoA4JkFX4snD9PT98V7r+Aw7GVn9lAoRdnwD9NzUVXqHRxsHCK6TMmxrr2yiHBLiydQt+J13/75RK17/DO9Ni3kQHtYBkJkD7oi7CK2SuGCN9BTPludTYn4UAl7Zu8vOpwkt8vVA6YBpuHJLE2wCubgENti8Trn/guV3S9b+3NK76MwRa1rfX5Aiv0K5YvMEsfyDOZ6oSIOTWBMjYsFm6/pP3Sde/38F46++kFpCUBOhT1Fy6wRQMFV4hMPvJ+N88qhIgLeW8CxPAP2+3dP1HlUrXv+3e6Ta2Tln82R8CEi9Amz/P8MmukL7+FekGM2l/Vzubruzmp/0XSngLmLgoTbrBFLYQXqF+wTB7ZfM6R4AEJ8At21YK198/Z7d0/UeW2qu/shHAfQlw17q6wivkFvUQXiF96Xi7L5FjmZkAtdduka7/I+9J1/9rJbbrrzABwm5KgF5FrYRXqLf+W9JXMM+omGCNbAG+p2dKrzViXT3hFW4t6qniZXIMFKB1YS/pBrPkQelv4qEXait5HQMTYMJPawuvcFtRa+kG8+JwRa/kJAESMgTW3bJWuP6+WX+Urv/wUlX1V9gC3DEEfnP9LcIrtCqSbjBpSx5S92JmJUDaqm3S9f/+Aen69zygsP4KEyDk/AToXpwrvEKddXdLX8HMeEbpPhl0FeCbPisgXJ0719cXXqFlUW+lr+cNK3up1OBZR7eAFrvnCtc/uOIN6fqPL1FbfyukcNNtR4CoAONK+kg3mPcelW4wr76YrvolLTMEyNlckCFbHO+MPW2E6z+sdKR6p5wkgNwMcEdBQ+HiNC/sK7xCcOEkiXeGCQmQumy7dP3HlkjXv9t+iforTYCwQxOgS3E74eKE19wjvIL3ydkyE6z+LcA7bY7wb/xb39gg3mA29ZMajnQXoOmm/sLFSV3wmEd4iQeWZ4pdWGguwP0rsoSL07m4vXSDWS14poyjZgDlQ2D2LwqF6+/90dvS9R9yUPJMIa1bwKCN0qfxNH3pduEVai2YItpgNL4RVOuFHdL1/95B6frn7fuB7IChbwJ0Ku4oXJzQqnzhFTxPzBO+gvGoPBQp5CABPI/PryVcnYEbmwiv0OSlAcIrWNk+JyWAuhbQeMdi4frXWrxTuv6xHfeX/BHASqntlAQw8bi/5I8A/4uA045IgAQc9/e48477c0AC2O4BahLA0OP+nCCA3TtBKr5nY4/7c0QLSH4CmHvcHy3AMvu4Px0EsBt7Whz3d19pAuuvVwsw+7g/44dA04/7Mz0B+hY2F94rhx/3Z7YA/mefEj7uzRq1Vjpg2hZ3TXD5LU9YDwHaFHUX3qn0n42TLsakhcFE198K+bQQgOP+nDEDJukyMAHH/c11/nF/jhAglIwE4Lg/x8yAlj/j80QnAMf9OSkB7PaA2AXoVTJBeIvqvb5KusHMfqulpYkANi8qYm0BHPfnsBZgNwFirGbrotuE9ycBx/09vLh28urvtBYQmwAc92f0DMBxf2a3AI7703EIjDoBOO7P7AToUcRxf0pQ/FlQggTguD9lhHwuFKBFofRxb8HFE6V3fvzSdAfUX/kIkIgbQeOWCR/3ZnV/Tfq4tzqvjrQcgfKfcJBPgGYF4rtSKL7CDMshKE+AkPhVgMcCJwvgkRYAHN0CvJkIYHQC2JwCEcD1AmQjgNEtAAFIAAQgARDAXAEYAt2E8s+CSAB3keVHAGZABEAAZgBmQBKABEAABLBPCAHMbgFZXgQwOgE8IQQwWgB7QwACuL4FIAAJgABGJ0AYAVyDwGdBJICbyPIjACMAAjACIAAJwBCIACQALQABSAAEQAB7hBDA7BaQ6UcAoxPAVgQggPsTwNYQgAAIAG4XIIwALiHLTwIwAyIAAiAAIwACkAAMgQhAAtACEIAEQAAEQABaAAKQAHFSO4AARieAnQhAgEQSRgCjyQo4TywEcP8IQAKYPgIgAAmAAEYLwAxAC0AAWgACIAAC0AIQgCEQAUxLgBAC0AIQwGABgrUQwAVkBiznRQACaDAD2pkCEUALAUgAo0cAOwL4qYsiGo2r6RG95RYfHlW6bD1e+e88NT+t+UdUVw+6ldACAAEAAQABAAEAAQABEAAQABAAEAAQABAAEAAQABAATEDiJ4J+/neFLzZkUHzPe2W/wi8iLz/eZy4/qvDLGNbfHQIU7lX4YqlxCvDGRoVfRH7cAmwoUfhlhAQEoAUwAwACAAIAAgACAAIAAgACAAIAAgACAAIAAgACAAIAAgACAAIAAgACAAIAAgACAAIAAgACAAIAAgACAAIAAgACAAIAAgACAAIAAgACAAIAAgACAAIAAgACAAIAAgACAAIAAgACQMLwH67xIQF2SRN+ebYKAXLZF2O4lRYACAAIAAgACAAIAAiAAIAAgACAAIAAgACAAIAAgABgBH6B1+yg8sUax/m8Vr0VfhGt435mp1SFX0ZDgWJ5IrwJaAGAAIAAgACAAIAAgACAAIAAgACAAIAAgACAAIAAgACAAIAAgACAAIAAgACAAIAAgACAAIAAgACAAIAAgACAAIAAgACAAIAAgACAAIAAgACAAIAAgACAAIAAgACAAIAAgACAAIAAgACAAIAAgACAAIAAgACAAIAAgACAAIAAgACAAIAAgACAAIAAgACAAIAAgACAAIAAgACAAIAAgACAAIAAgACAAIAAgAAIAAgACAAIAAgACAAIAAgACAAIAAgACAAIAAgACAAIAAgAWuHpzR4AAAAAAAAAAAAAAABoy38BKrnA//kOif0AAAAASUVORK5CYII=;fontColor=#000000;strokeColor=#000000;fillColor=#FF0000;aspect=fixed;" parent="7" vertex="1">
                    <mxGeometry width="40" height="40" as="geometry"/>
                </mxCell>
                <mxCell id="6" value="1" style="ellipse;whiteSpace=wrap;html=1;aspect=fixed;fontColor=#FFFFFF;strokeColor=#FFFFFF;fillColor=#FF0000;" parent="7" vertex="1">
                    <mxGeometry x="30" width="20" height="20" as="geometry"/>
                </mxCell>
                <mxCell id="15" value="" style="rounded=0;whiteSpace=wrap;html=1;fillColor=#FFFFFF;strokeColor=#000000;" parent="1" vertex="1">
                    <mxGeometry x="240" y="250" width="140" height="100" as="geometry"/>
                </mxCell>
                <mxCell id="16" value="TP 9" style="rounded=0;whiteSpace=wrap;html=1;strokeColor=#001DBC;fillColor=#0050ef;fontColor=#ffffff;align=center;" parent="1" vertex="1">
                    <mxGeometry x="240" y="220" width="50" height="30" as="geometry"/>
                </mxCell>
                <mxCell id="48" value="&lt;font style=&quot;font-size: 27px&quot;&gt;Releaseschiene '3.13'&lt;/font&gt;" style="rounded=0;whiteSpace=wrap;html=1;fillColor=#0050ef;strokeColor=#001DBC;fontColor=#ffffff;" parent="1" vertex="1">
                    <mxGeometry x="240" y="150" width="1070" height="60" as="geometry"/>
                </mxCell>
                <mxCell id="142" value="&lt;font color=&quot;#000000&quot;&gt;&lt;font style=&quot;font-size: 10px&quot;&gt;Quelle&lt;/font&gt;&lt;br&gt;Param-Entw 1&lt;/font&gt;" style="text;html=1;strokeColor=none;fillColor=none;align=left;verticalAlign=middle;whiteSpace=wrap;rounded=0;labelBackgroundColor=none;fontSize=12;fontColor=#FFFFFF;" parent="1" vertex="1">
                    <mxGeometry x="245" y="283" width="80" height="30" as="geometry"/>
                </mxCell>
                <mxCell id="143" value="&lt;font color=&quot;#000000&quot;&gt;&lt;font style=&quot;font-size: 10px&quot;&gt;Name&lt;/font&gt;&lt;br&gt;Demo&lt;/font&gt;" style="text;html=1;strokeColor=none;fillColor=none;align=left;verticalAlign=middle;whiteSpace=wrap;rounded=0;labelBackgroundColor=none;fontSize=12;fontColor=#FFFFFF;" parent="1" vertex="1">
                    <mxGeometry x="245" y="253" width="80" height="30" as="geometry"/>
                </mxCell>
                <mxCell id="144" value="&lt;font color=&quot;#000000&quot;&gt;&lt;font style=&quot;font-size: 10px&quot;&gt;Exportiert am&lt;/font&gt;&lt;br&gt;18.01.2023&lt;/font&gt;" style="text;html=1;strokeColor=none;fillColor=none;align=left;verticalAlign=middle;whiteSpace=wrap;rounded=0;labelBackgroundColor=none;fontSize=12;fontColor=#FFFFFF;" parent="1" vertex="1">
                    <mxGeometry x="245" y="313" width="80" height="30" as="geometry"/>
                </mxCell>
                <mxCell id="145" value="" style="whiteSpace=wrap;html=1;rounded=0;shadow=0;labelBackgroundColor=none;strokeWidth=1;fontFamily=Verdana;fontSize=12;align=center;comic=1;fillColor=#FFFFFF;fontColor=#000000;strokeColor=#000000;" vertex="1" parent="1">
                    <mxGeometry x="240" y="757" width="1070" height="243" as="geometry"/>
                </mxCell>
            </root>
        </mxGraphModel>
    </diagram>
</mxfile>